<?xml version="1.0" encoding="UTF-8"?>
<svg id="_Слой_1" data-name=" Слой 1" xmlns="http://www.w3.org/2000/svg" viewBox="0 0 450.19 511.97">
  <g id="_Слой_2" data-name=" Слой 2">
    <path d="M414.6,202.53H35.98C52.09,119.54,121.41,55.55,207,47.5c6.02-.57,12.12-.86,18.29-.86s12.27.29,18.29.86c85.59,8.05,154.91,72.04,171.02,155.03Z" fill="none" stroke="#000" stroke-miterlimit="10" stroke-width="28"/>
    <path d="M443.14,220.82c0,10.1-8.19,18.29-18.29,18.29H25.29c-10.11,0-18.29-8.19-18.29-18.29s8.18-18.29,18.29-18.29h399.56c10.1,0,18.29,8.19,18.29,18.29Z" stroke="#000" stroke-miterlimit="10" stroke-width="14"/>
    <path d="M243.58,26.54v20.96c-6.02-.57-12.12-.86-18.29-.86s-12.27.29-18.29.86v-20.96c0-10.1,8.19-18.29,18.29-18.29s18.29,8.19,18.29,18.29Z" stroke="#000" stroke-miterlimit="10" stroke-width="14"/>
  </g>
  <g id="_Слой_3" data-name=" Слой 3">
    <path d="M144.88,463s57.98-36.72,77.3-54.78c19.31-18.06,65.74-71.65,75.16-84.78,19.7-27.47,45.17-64.32,42.61-74.48-1.96-7.79-28.43-13.81-42.08,2.05-13.65,15.85-31.49,47.41-31.49,47.41,0,0-52.1,55.4-78.28,47.06-2.43-.77-4.64-1.98-6.64-3.54-16.94-13.16-19.4-51.49-20.14-67.64-.83-18.06-4.1-36-40.93-33.57,0,0-1.41,43.35-6.17,63.99s-10.79,30.03-21.14,50.84c-10.38,20.87-9.86,45.78-9.86,45.78l61.65,61.65h.01Z" fill="none" stroke="#000" stroke-miterlimit="10" stroke-width="20"/>
    <path d="M266.38,298.42l-81.78,44.62c-.15.08-.31-.11-.19-.24l45.69-48.39s14.49-31.38,25.93-41.74c12.32-11.16,34.02-14.56,40.54-13.09s-.63,13.73-.63,13.73" stroke="#000" stroke-miterlimit="10" stroke-width="14"/>
    <rect x="74.87" y="393.43" width="47.29" height="113.29" rx="5.6" ry="5.6" transform="translate(-289.4 201.49) rotate(-45)" stroke="#000" stroke-miterlimit="10" stroke-width="14"/>
  </g>
  <path d="M77.3,418.22c-2.93-2.93-7.69-2.93-10.63,0-2.93,2.93-2.93,7.69,0,10.63l7.24,7.24c1.47,1.47,3.39,2.2,5.31,2.2s3.85-.73,5.31-2.2c2.93-2.93,2.93-7.69,0-10.63l-7.24-7.24h.01Z" fill="#fff"/>
</svg>